# xmcd
#
# Track frame offsets: 
#        183
#        29120
#        44515
#        56333
#        68995
#        94950
#        109903
#        126183
#        140208
#        161158
#        177933
#        190908
#        210658
#        222945
#        245883
#        288033
#        301000
#
# Disc length: 4190 seconds
#
# Revision: 1
# Processed by: cddbd v1.5.2PL0 Copyright (c) Steve Scherf et al.
# Submitted via: ExactAudioCopyFreeDBPlugin 1.0
#
DISCID=0d105c11
DTITLE=Bobby Womack - In Muscle Shoals
DYEAR=1900
DGENRE=Blues
TTITLE0=I Can't Understand it
TTITLE1=Woman's Gotta Have It
TTITLE2=And I Love Her
TTITLE3=Got to Get You Back
TTITLE4=Simple Man
TTITLE5=Ruby Dean
TTITLE6=Thing Called Love
TTITLE7=Sweet Caroline
TTITLE8=Communication
TTITLE9=Harry Hippie
TTITLE10=Come l'Amore
TTITLE11=Fire and Rain
TTITLE12=Give It Back
TTITLE13=That's the Way I Feel About Cha
TTITLE14=Medley: Monologue - (They long to be) Close to You
TTITLE15=Everything Is Beautiful
TTITLE16=Yield not to Temptation
EXTD=
EXTT0=
EXTT1=
EXTT2=
EXTT3=
EXTT4=
EXTT5=
EXTT6=
EXTT7=
EXTT8=
EXTT9=
EXTT10=
EXTT11=
EXTT12=
EXTT13=
EXTT14=
EXTT15=
EXTT16=
PLAYORDER=
